<svg width="847" height="499" viewBox="0 0 847 499" fill="none" xmlns="http://www.w3.org/2000/svg">
<path d="M58.5534 468.228L108.507 397.927L58.528 475.875L58.4989 483.874C54.9365 483.844 51.4102 483.731 47.9198 483.533C47.9039 481.717 52.1498 381.79 51.9693 379.982C52.2157 379.914 52.354 370.531 52.4517 370.12L0.264404 293.296L52.5078 362.849L52.6636 364.905L55.7629 287.268L10.9023 207.765L56.1177 273.627C56.1345 272.57 58.2578 113.164 58.2787 112.18C58.2915 112.703 59.266 239.037 59.2732 239.569L102.177 188.718L59.232 250.496L59.0127 319.98L98.827 252.788C49.1391 350.778 60.1353 316.487 58.8663 368.833L116.699 275.272L58.8168 382.312L58.5534 468.228Z" fill="#D0CDE1"/>
<path d="M822.769 477.772L843.587 448.476L822.759 480.959L822.747 484.292C821.262 484.28 819.793 484.233 818.338 484.15C818.332 483.394 820.101 441.751 820.026 440.998C820.128 440.97 820.186 437.06 820.227 436.888L798.479 404.874L820.25 433.858L820.315 434.715L821.606 402.362L802.912 369.231L821.754 396.677C821.761 396.237 822.646 329.808 822.655 329.399C822.66 329.616 823.066 382.263 823.069 382.484L840.948 361.294L823.052 387.038L822.961 415.994L839.552 387.993C818.846 428.828 823.429 414.538 822.9 436.352L847 397.363L822.879 441.969L822.769 477.772Z" fill="#D0CDE1"/>
<path d="M422.116 499C655.244 499 844.231 491.748 844.231 482.801C844.231 473.855 655.244 466.602 422.116 466.602C188.988 466.602 0 473.855 0 482.801C0 491.748 188.988 499 422.116 499Z" fill="#D0CDE1"/>
<path d="M626.873 191.324H144.905V472.774H626.873V191.324Z" fill="#3F3D56"/>
<path d="M264.185 191.324C263.692 220.941 251.335 249.181 229.779 269.956C208.223 290.731 179.194 302.375 148.953 302.378C147.599 302.378 146.252 302.355 144.905 302.309V191.324H264.185Z" fill="#6C63FF"/>
<path d="M409.466 472.774H363.626C365.351 468.18 368.473 464.214 372.572 461.413C376.671 458.612 381.548 457.11 386.546 457.11C391.544 457.11 396.421 458.612 400.52 461.413C404.618 464.214 407.741 468.18 409.466 472.774Z" fill="#6C63FF"/>
<path d="M626.873 327.193V421.995C614.447 421.4 602.731 416.146 594.152 407.322C585.572 398.498 580.787 386.78 580.787 374.594C580.787 362.409 585.572 350.69 594.152 341.866C602.731 333.042 614.447 327.788 626.873 327.193Z" fill="#6C63FF"/>
<path d="M538.331 293.596H234.282C226.44 293.596 220.082 299.823 220.082 307.505V307.505C220.082 315.186 226.44 321.413 234.282 321.413H538.331C546.174 321.413 552.531 315.186 552.531 307.505C552.531 299.823 546.174 293.596 538.331 293.596Z" fill="white"/>
<path d="M538.331 348.413H234.282C226.44 348.413 220.082 354.64 220.082 362.321V362.321C220.082 370.003 226.44 376.23 234.282 376.23H538.331C546.174 376.23 552.531 370.003 552.531 362.321C552.531 354.64 546.174 348.413 538.331 348.413Z" fill="white"/>
<path d="M538.331 403.23H450.174C442.331 403.23 435.974 409.457 435.974 417.138C435.974 424.82 442.331 431.047 450.174 431.047H538.331C546.174 431.047 552.531 424.82 552.531 417.138C552.531 409.457 546.174 403.23 538.331 403.23Z" fill="white"/>
</svg>
