<svg width="624" height="629" viewBox="0 0 624 629" fill="none" xmlns="http://www.w3.org/2000/svg">
<path d="M141.666 219.927L118.014 235.007L364.34 600.103L387.992 585.023L141.666 219.927Z" fill="#E6E6E6"/>
<path d="M85.3565 82.5313L140.08 163.641C141.14 165.212 141.514 167.127 141.121 168.967C140.728 170.806 139.6 172.418 137.984 173.448C136.368 174.478 134.397 174.842 132.506 174.46C130.614 174.078 128.955 172.98 127.896 171.41L64.9842 78.1643C56.4448 77.471 47.8617 78.8414 39.999 82.1532L108.544 183.748C109.603 185.319 109.977 187.234 109.583 189.073C109.19 190.911 108.062 192.523 106.446 193.553C104.831 194.583 102.861 194.947 100.969 194.565C99.0774 194.183 97.4193 193.087 96.3593 191.517L27.8144 89.9218C21.5569 95.6128 16.8441 102.72 14.0959 110.61L77.0074 203.855C78.0665 205.426 78.4404 207.341 78.047 209.18C77.6536 211.019 76.5251 212.63 74.9097 213.66C73.2942 214.69 71.3241 215.054 69.4326 214.672C67.541 214.29 65.8829 213.194 64.8229 211.624L10.0991 130.514C8.6936 153.129 16.2787 179.935 32.902 204.573C63.797 250.365 114.193 271.323 145.465 251.385C176.736 231.447 177.041 178.162 146.146 132.371C129.523 107.732 107.254 90.2889 85.3565 82.5313Z" fill="#E6E6E6"/>
<path d="M247.714 169.981H219.429V606.598H247.714V169.981Z" fill="#E6E6E6"/>
<path d="M233.143 198.311C270.54 198.311 300.857 153.918 300.857 99.1555C300.857 44.3934 270.54 0 233.143 0C195.745 0 165.429 44.3934 165.429 99.1555C165.429 153.918 195.745 198.311 233.143 198.311Z" fill="#E6E6E6"/>
<path d="M233.143 180.739C263.913 180.739 288.857 144.213 288.857 99.1554C288.857 54.0981 263.913 17.5718 233.143 17.5718C202.373 17.5718 177.429 54.0981 177.429 99.1554C177.429 144.213 202.373 180.739 233.143 180.739Z" fill="#CCCCCC"/>
<path d="M312 629C484.313 629 624 621.209 624 611.598C624 601.986 484.313 594.195 312 594.195C139.687 594.195 0 601.986 0 611.598C0 621.209 139.687 629 312 629Z" fill="#E6E6E6"/>
<path d="M496.515 611.342C379.59 590.854 259.839 590.854 142.913 611.342C141.056 611.669 139.147 611.596 137.322 611.128C135.497 610.66 133.8 609.808 132.351 608.632C130.901 607.457 129.735 605.986 128.934 604.325C128.132 602.663 127.716 600.851 127.714 599.016V443.283H511.714V599.016C511.712 600.851 511.296 602.663 510.495 604.325C509.694 605.986 508.527 607.457 507.078 608.632C505.629 609.808 503.931 610.66 502.106 611.128C500.281 611.596 498.373 611.669 496.515 611.342Z" fill="#6C63FF"/>
<path d="M476.571 328.296C467.705 328.288 458.899 329.721 450.518 332.534C438.294 306.76 418.761 284.91 394.211 269.548C369.662 254.187 341.114 245.951 311.918 245.808C282.722 245.664 254.09 253.619 229.382 268.739C204.674 283.858 184.915 305.516 172.423 331.168C160.123 327.814 147.174 327.383 134.667 329.91C122.159 332.438 110.46 337.85 100.554 345.692C90.6479 353.534 82.8257 363.575 77.7461 374.97C72.6665 386.364 70.4783 398.779 71.3658 411.167C72.2533 423.556 76.1905 435.556 82.8458 446.156C89.5012 456.756 98.6796 465.646 109.608 472.078C120.536 478.509 132.895 482.293 145.642 483.111C158.389 483.928 171.152 481.756 182.855 476.777C196.921 497.613 216.133 514.692 238.737 526.452C261.34 538.213 286.615 544.281 312.252 544.101C337.889 543.922 363.071 537.501 385.498 525.426C407.925 513.35 426.883 496.005 440.639 474.974C451.386 480.248 463.223 483.088 475.26 483.279C487.297 483.471 499.223 481.01 510.142 476.081C521.061 471.152 530.69 463.882 538.306 454.818C545.923 445.754 551.328 435.131 554.117 423.746C556.906 412.361 557.006 400.51 554.41 389.082C551.814 377.654 546.589 366.946 539.128 357.762C531.666 348.577 522.162 341.155 511.327 336.052C500.493 330.949 488.611 328.297 476.571 328.296Z" fill="#6C63FF"/>
<path d="M158.571 394.955H156.857C156.799 372.768 161.85 350.85 171.64 330.808L173.19 331.522C163.508 351.341 158.513 373.015 158.571 394.955Z" fill="#3F3D56"/>
<path d="M465.429 394.955H463.714C463.767 373.521 459.001 352.334 449.748 332.878L451.305 332.18C460.662 351.855 465.482 373.28 465.429 394.955Z" fill="#3F3D56"/>
<path d="M127.921 515.751L127.508 514.133C127.991 514.017 176.71 502.385 248.108 496.613C314.006 491.286 413.268 490.002 511.924 514.134L511.505 515.75C413.091 491.678 314.046 492.957 248.286 498.271C177.016 504.03 128.404 515.634 127.921 515.751Z" fill="#3F3D56"/>
<path d="M127.921 538.248L127.508 536.63C127.991 536.514 176.71 524.882 248.108 519.11C314.006 513.784 413.268 512.499 511.924 536.631L511.505 538.247C413.091 514.175 314.046 515.456 248.286 520.769C177.016 526.527 128.404 538.132 127.921 538.248Z" fill="#3F3D56"/>
<path d="M127.921 560.746L127.508 559.128C127.991 559.012 176.71 547.38 248.108 541.608C314.006 536.281 413.268 534.997 511.924 559.129L511.505 560.745C413.091 536.673 314.046 537.954 248.286 543.266C177.016 549.025 128.404 560.629 127.921 560.746Z" fill="#3F3D56"/>
<path d="M82.1879 606.691C63.4745 618.069 44.761 618.065 26.0475 606.677C25.4551 606.322 24.974 605.817 24.6564 605.215C24.3389 604.613 24.1971 603.938 24.2464 603.264L30.0856 529.471H77.3146L83.9856 603.238C84.0432 603.919 83.9057 604.602 83.5884 605.211C83.2711 605.821 82.7864 606.333 82.1879 606.691Z" fill="#3F3D56"/>
<path d="M53.4823 538.653C66.6445 538.653 77.3146 534.916 77.3146 530.306C77.3146 525.696 66.6445 521.958 53.4823 521.958C40.32 521.958 29.6499 525.696 29.6499 530.306C29.6499 534.916 40.32 538.653 53.4823 538.653Z" fill="#3F3D56"/>
<path d="M72.1624 527.488C59.7438 535.98 47.7218 535.98 36.0966 527.488V514.132H72.1624V527.488Z" fill="#6C63FF"/>
<path d="M54.1295 520.81C64.0887 520.81 72.1623 517.82 72.1623 514.132C72.1623 510.444 64.0887 507.454 54.1295 507.454C44.1702 507.454 36.0966 510.444 36.0966 514.132C36.0966 517.82 44.1702 520.81 54.1295 520.81Z" fill="#6C63FF"/>
<path d="M54.9882 514.132C55.9367 514.132 56.7056 513.758 56.7056 513.297C56.7056 512.836 55.9367 512.462 54.9882 512.462C54.0397 512.462 53.2708 512.836 53.2708 513.297C53.2708 513.758 54.0397 514.132 54.9882 514.132Z" fill="#E6E6E6"/>
<path d="M63.0977 514.132C64.0462 514.132 64.8151 513.758 64.8151 513.297C64.8151 512.836 64.0462 512.462 63.0977 512.462C62.1492 512.462 61.3803 512.836 61.3803 513.297C61.3803 513.758 62.1492 514.132 63.0977 514.132Z" fill="#E6E6E6"/>
<path d="M59.0429 516.103C59.9914 516.103 60.7603 515.729 60.7603 515.268C60.7603 514.807 59.9914 514.433 59.0429 514.433C58.0944 514.433 57.3255 514.807 57.3255 515.268C57.3255 515.729 58.0944 516.103 59.0429 516.103Z" fill="#E6E6E6"/>
<path d="M42.8239 516.103C43.7724 516.103 44.5413 515.729 44.5413 515.268C44.5413 514.807 43.7724 514.433 42.8239 514.433C41.8754 514.433 41.1065 514.807 41.1065 515.268C41.1065 515.729 41.8754 516.103 42.8239 516.103Z" fill="#E6E6E6"/>
<path d="M46.8787 514.132C47.8272 514.132 48.5961 513.758 48.5961 513.297C48.5961 512.836 47.8272 512.462 46.8787 512.462C45.9302 512.462 45.1612 512.836 45.1612 513.297C45.1612 513.758 45.9302 514.132 46.8787 514.132Z" fill="#E6E6E6"/>
<path d="M50.9334 517.088C51.8819 517.088 52.6508 516.714 52.6508 516.253C52.6508 515.792 51.8819 515.418 50.9334 515.418C49.9849 515.418 49.216 515.792 49.216 516.253C49.216 516.714 49.9849 517.088 50.9334 517.088Z" fill="#E6E6E6"/>
<path d="M600.759 606.691C582.046 618.069 563.332 618.065 544.619 606.677C544.026 606.322 543.545 605.817 543.228 605.215C542.91 604.613 542.768 603.938 542.818 603.264L548.657 529.471H595.886L602.557 603.238C602.615 603.919 602.477 604.602 602.16 605.211C601.842 605.821 601.358 606.333 600.759 606.691Z" fill="#3F3D56"/>
<path d="M572.054 538.653C585.216 538.653 595.886 534.916 595.886 530.306C595.886 525.696 585.216 521.958 572.054 521.958C558.891 521.958 548.221 525.696 548.221 530.306C548.221 534.916 558.891 538.653 572.054 538.653Z" fill="#3F3D56"/>
<path d="M590.734 527.488C578.315 535.98 566.293 535.98 554.668 527.488V514.132H590.734V527.488Z" fill="#6C63FF"/>
<path d="M572.701 520.81C582.66 520.81 590.734 517.82 590.734 514.132C590.734 510.444 582.66 507.454 572.701 507.454C562.742 507.454 554.668 510.444 554.668 514.132C554.668 517.82 562.742 520.81 572.701 520.81Z" fill="#6C63FF"/>
<path d="M573.56 514.132C574.508 514.132 575.277 513.758 575.277 513.297C575.277 512.836 574.508 512.462 573.56 512.462C572.611 512.462 571.842 512.836 571.842 513.297C571.842 513.758 572.611 514.132 573.56 514.132Z" fill="#E6E6E6"/>
<path d="M581.669 514.132C582.618 514.132 583.387 513.758 583.387 513.297C583.387 512.836 582.618 512.462 581.669 512.462C580.721 512.462 579.952 512.836 579.952 513.297C579.952 513.758 580.721 514.132 581.669 514.132Z" fill="#E6E6E6"/>
<path d="M577.614 516.103C578.563 516.103 579.332 515.729 579.332 515.268C579.332 514.807 578.563 514.433 577.614 514.433C576.666 514.433 575.897 514.807 575.897 515.268C575.897 515.729 576.666 516.103 577.614 516.103Z" fill="#E6E6E6"/>
<path d="M561.395 516.103C562.344 516.103 563.113 515.729 563.113 515.268C563.113 514.807 562.344 514.433 561.395 514.433C560.447 514.433 559.678 514.807 559.678 515.268C559.678 515.729 560.447 516.103 561.395 516.103Z" fill="#E6E6E6"/>
<path d="M565.45 514.132C566.399 514.132 567.168 513.758 567.168 513.297C567.168 512.836 566.399 512.462 565.45 512.462C564.502 512.462 563.733 512.836 563.733 513.297C563.733 513.758 564.502 514.132 565.45 514.132Z" fill="#E6E6E6"/>
<path d="M569.505 517.088C570.453 517.088 571.222 516.714 571.222 516.253C571.222 515.792 570.453 515.418 569.505 515.418C568.556 515.418 567.787 515.792 567.787 516.253C567.787 516.714 568.556 517.088 569.505 517.088Z" fill="#E6E6E6"/>
</svg>
